<?xml version="1.0" encoding="UTF-8" standalone="no"?>
<svg
   viewBox="0 0 640 512"
   version="1.1"
   id="svg4"
   sodipodi:docname="box-open.svg"
   inkscape:version="1.2 (1:1.2+202205211824+da316b6974)"
   xmlns:inkscape="http://www.inkscape.org/namespaces/inkscape"
   xmlns:sodipodi="http://sodipodi.sourceforge.net/DTD/sodipodi-0.dtd"
   xmlns="http://www.w3.org/2000/svg"
   xmlns:svg="http://www.w3.org/2000/svg">
  <defs
     id="defs8" />
  <sodipodi:namedview
     id="namedview6"
     pagecolor="#ffffff"
     bordercolor="#000000"
     borderopacity="0.25"
     inkscape:showpageshadow="2"
     inkscape:pageopacity="0.0"
     inkscape:pagecheckerboard="0"
     inkscape:deskcolor="#d1d1d1"
     showgrid="false"
     inkscape:zoom="0.9296875"
     inkscape:cx="310.85714"
     inkscape:cy="258.68908"
     inkscape:window-width="1366"
     inkscape:window-height="704"
     inkscape:window-x="0"
     inkscape:window-y="0"
     inkscape:window-maximized="1"
     inkscape:current-layer="svg4" />
  <!--! Font Awesome Free 6.1.2 by @fontawesome - https://fontawesome.com License - https://fontawesome.com/license/free (Icons: CC BY 4.0, Fonts: SIL OFL 1.1, Code: MIT License) Copyright 2022 Fonticons, Inc. -->
  <path
     d="M75.23 33.4L320 63.1L564.8 33.4C571.5 32.56 578 36.06 581.1 42.12L622.8 125.5C631.7 143.4 622.2 165.1 602.9 170.6L439.6 217.3C425.7 221.2 410.8 215.4 403.4 202.1L320 63.1L236.6 202.1C229.2 215.4 214.3 221.2 200.4 217.3L37.07 170.6C17.81 165.1 8.283 143.4 17.24 125.5L58.94 42.12C61.97 36.06 68.5 32.56 75.23 33.4H75.23zM321.1 128L375.9 219.4C390.8 244.2 420.5 255.1 448.4 248L576 211.6V378.5C576 400.5 561 419.7 539.6 425.1L335.5 476.1C325.3 478.7 314.7 478.7 304.5 476.1L100.4 425.1C78.99 419.7 64 400.5 64 378.5V211.6L191.6 248C219.5 255.1 249.2 244.2 264.1 219.4L318.9 128H321.1z"
     id="path2"
     style="stroke:#ff4902;stroke-opacity:0.05270712;stroke-width:5;stroke-dasharray:none;fill:#fe8d62;fill-opacity:1" />
</svg>
