<?xml version="1.0" encoding="UTF-8" standalone="no"?>
<svg
   width="512"
   height="512"
   viewBox="0 0 512 512"
   version="1.1"
   id="svg6"
   sodipodi:docname="chatbox-ellipses.svg"
   inkscape:version="1.2 (1:1.2+202205211824+da316b6974)"
   xmlns:inkscape="http://www.inkscape.org/namespaces/inkscape"
   xmlns:sodipodi="http://sodipodi.sourceforge.net/DTD/sodipodi-0.dtd"
   xmlns="http://www.w3.org/2000/svg"
   xmlns:svg="http://www.w3.org/2000/svg">
  <defs
     id="defs10" />
  <sodipodi:namedview
     id="namedview8"
     pagecolor="#ffffff"
     bordercolor="#000000"
     borderopacity="0.25"
     inkscape:showpageshadow="2"
     inkscape:pageopacity="0.0"
     inkscape:pagecheckerboard="0"
     inkscape:deskcolor="#d1d1d1"
     showgrid="false"
     inkscape:zoom="0.9296875"
     inkscape:cx="254.92437"
     inkscape:cy="256"
     inkscape:window-width="1366"
     inkscape:window-height="704"
     inkscape:window-x="0"
     inkscape:window-y="0"
     inkscape:window-maximized="1"
     inkscape:current-layer="svg6" />
  <title
     id="title2">ionicons-v5-q</title>
  <path
     d="M408,48H104a72.08,72.08,0,0,0-72,72V312a72.08,72.08,0,0,0,72,72h24v64a16,16,0,0,0,26.25,12.29L245.74,384H408a72.08,72.08,0,0,0,72-72V120A72.08,72.08,0,0,0,408,48ZM160,248a32,32,0,1,1,32-32A32,32,0,0,1,160,248Zm96,0a32,32,0,1,1,32-32A32,32,0,0,1,256,248Zm96,0a32,32,0,1,1,32-32A32,32,0,0,1,352,248Z"
     id="path4"
     style="fill:#e45017;fill-opacity:1" />
</svg>
